<svg width="34" height="34" viewBox="0 0 34 34" fill="none" xmlns="http://www.w3.org/2000/svg">
<circle cx="17" cy="17" r="16" fill="white" stroke="#D9D9D9"/>
<path d="M17.0624 18.3125C17.6592 18.3125 18.2314 18.0755 18.6534 17.6534C19.0754 17.2314 19.3124 16.6593 19.3124 16.0624V13.2499C19.3124 12.4461 18.8836 11.7034 18.1875 11.3014C17.4913 10.8995 16.6336 10.8995 15.9374 11.3014C15.2413 11.7034 14.8125 12.4461 14.8125 13.2499V16.0624C14.8125 16.6592 15.0494 17.2314 15.4715 17.6534C15.8935 18.0754 16.4656 18.3125 17.0624 18.3125ZM15.9374 13.2499C15.9374 12.848 16.1519 12.4766 16.4999 12.2757C16.848 12.0746 17.2768 12.0746 17.625 12.2757C17.973 12.4766 18.1875 12.848 18.1875 13.2499V16.0624C18.1875 16.4644 17.973 16.8358 17.625 17.0367C17.2768 17.2377 16.8481 17.2377 16.4999 17.0367C16.1518 16.8358 15.9374 16.4644 15.9374 16.0624V13.2499Z" fill="#888888"/>
<path d="M16.4999 20.9057V23H17.625V20.9057C18.8624 20.7673 20.0055 20.1777 20.8356 19.2497C21.6659 18.3216 22.1248 17.1202 22.125 15.875V15.5001H21V15.875C21 17.2818 20.2496 18.5818 19.0313 19.2852C17.8129 19.9885 16.312 19.9885 15.0937 19.2852C13.8754 18.5818 13.125 17.2819 13.125 15.875V15.5001H12V15.875C12.0001 17.1203 12.4591 18.3217 13.2893 19.2497C14.1195 20.1777 15.2625 20.7673 16.4999 20.9057Z" fill="#888888"/>
</svg>
